<?xml version="1.0" standalone="no"?>
<!DOCTYPE svg PUBLIC "-//W3C//DTD SVG 20010904//EN"
 "http://www.w3.org/TR/2001/REC-SVG-20010904/DTD/svg10.dtd">
<svg version="1.0" xmlns="http://www.w3.org/2000/svg"
 width="260.000000pt" height="260.000000pt" viewBox="0 0 260.000000 260.000000"
 preserveAspectRatio="xMidYMid meet">
<metadata>
Created by potrace 1.11, written by Peter Selinger 2001-2013
</metadata>
<g transform="translate(0.000000,260.000000) scale(0.100000,-0.100000)"
fill="#000000" stroke="none">
<path d="M1375 2523 c-47 -10 -77 -28 -98 -57 -21 -29 -22 -44 -27 -241 -3
-139 -9 -217 -17 -231 -18 -32 -64 -44 -162 -44 -68 0 -93 -4 -118 -20 -64
-39 -67 -52 -73 -288 l-5 -214 -28 -24 c-18 -15 -41 -24 -63 -24 -34 0 -34 -1
-34 -44 0 -43 0 -43 41 -49 23 -3 51 -15 63 -26 20 -20 21 -35 26 -234 4 -174
8 -218 22 -243 24 -43 73 -64 152 -64 l66 0 0 45 0 45 -48 0 c-84 0 -86 6 -92
252 l-5 210 -37 32 -36 31 36 31 37 31 5 213 c5 208 5 212 29 231 18 15 39 19
102 19 68 0 81 -3 106 -24 l28 -24 5 -214 c4 -182 8 -218 23 -241 34 -52 61
-62 195 -67 170 -7 162 5 162 -242 0 -205 5 -227 56 -267 26 -21 27 -22 8 -36
-10 -8 -22 -15 -25 -15 -4 0 -14 -15 -23 -34 -13 -27 -16 -70 -16 -218 0 -223
-2 -229 -83 -242 l-57 -9 0 -45 0 -45 68 5 c79 6 117 22 146 61 19 26 21 45
26 242 5 207 6 214 29 239 13 14 40 27 62 31 38 7 39 7 39 51 0 42 -1 44 -31
44 -38 0 -65 14 -81 43 -9 15 -14 90 -18 234 -5 208 -5 212 -30 239 -40 43
-79 54 -194 54 -157 0 -150 -12 -156 250 l-5 212 -37 33 -36 34 23 15 c45 30
50 50 55 262 6 237 9 244 92 244 l48 0 0 50 0 50 -47 -1 c-27 -1 -57 -3 -68
-6z"/>
</g>
</svg>
